<?xml version="1.0" standalone="no"?>
<!DOCTYPE svg PUBLIC "-//W3C//DTD SVG 20010904//EN"
 "http://www.w3.org/TR/2001/REC-SVG-20010904/DTD/svg10.dtd">
<svg version="1.0" xmlns="http://www.w3.org/2000/svg"
 width="1000.000000pt" height="1000.000000pt" viewBox="0 0 1000.000000 1000.000000"
 preserveAspectRatio="xMidYMid meet">
<metadata>
Created by potrace 1.14, written by Peter Selinger 2001-2017
</metadata>
<g transform="translate(0.000000,1000.000000) scale(0.100000,-0.100000)"
fill="#000000" stroke="none">
<path d="M371 6662 c-19 -9 -43 -33 -53 -52 -17 -33 -18 -99 -18 -1535 0
-1436 1 -1502 18 -1535 40 -75 -45 -70 1210 -70 1236 0 1172 -3 1212 62 36 59
21 132 -36 177 -27 21 -27 21 -1080 21 l-1054 0 0 1345 0 1345 4428 -2 4427
-3 3 -1342 2 -1343 -1053 0 c-1000 0 -1054 -1 -1086 -18 -37 -20 -71 -73 -71
-110 0 -40 28 -91 62 -112 33 -20 47 -20 1171 -20 1257 0 1176 -4 1217 63 20
31 20 62 20 1542 0 1497 0 1510 -20 1543 -11 18 -36 40 -55 48 -30 12 -652 14
-4622 14 -4348 0 -4590 -1 -4622 -18z"/>
<path d="M1297 5728 c2 -112 4 -383 6 -603 4 -443 5 -449 73 -593 75 -156 218
-262 403 -298 105 -20 344 -15 436 10 210 57 366 217 420 430 30 118 35 228
35 738 l0 518 -180 0 -179 0 -3 -572 c-3 -570 -3 -573 -26 -629 -33 -83 -72
-130 -133 -164 -45 -24 -68 -30 -141 -33 -209 -10 -316 85 -347 312 -7 47 -11
276 -11 582 l0 504 -177 0 -178 0 2 -202z"/>
<path d="M2897 5863 c-9 -89 -9 -1218 0 -1440 l6 -173 174 0 173 0 0 325 0
325 72 0 c92 0 144 -24 199 -93 22 -29 109 -166 192 -304 l152 -253 202 0
c112 0 203 3 203 7 0 4 -80 132 -177 286 -183 287 -262 388 -340 434 l-44 26
55 22 c78 32 147 78 199 134 88 94 121 194 115 345 -10 216 -104 330 -328 397
-71 21 -96 23 -461 27 l-386 3 -6 -68z m668 -223 c63 -19 120 -83 135 -152 27
-119 -25 -228 -133 -282 -52 -26 -71 -29 -178 -34 -97 -4 -123 -2 -130 9 -11
17 -12 462 -1 473 10 12 260 0 307 -14z"/>
<path d="M4300 5089 l0 -840 403 4 c441 4 456 6 581 69 262 132 342 492 154
687 -73 76 -134 107 -263 136 -28 6 -27 7 29 30 123 50 220 151 252 263 22 73
15 179 -16 250 -28 64 -107 140 -187 177 -116 56 -201 65 -595 65 l-358 0 0
-841z m673 551 c87 -33 121 -82 121 -175 0 -102 -58 -176 -160 -204 -21 -6
-92 -11 -156 -11 l-118 0 0 205 0 205 130 0 c105 0 139 -4 183 -20z m-18 -671
c75 -13 128 -42 169 -92 27 -34 31 -48 34 -110 4 -86 -11 -130 -64 -181 -56
-54 -112 -68 -282 -70 l-147 -1 -3 220 c-1 121 0 225 2 232 7 16 202 18 291 2z"/>
<path d="M6105 5913 c-39 -99 -605 -1651 -605 -1659 0 -2 87 -4 193 -4 l192 0
60 188 61 187 308 0 308 0 61 -187 61 -188 193 0 c106 0 193 3 193 6 0 3 -33
99 -74 212 -135 379 -277 775 -361 1007 -45 127 -100 280 -122 340 l-39 110
-211 3 c-194 2 -211 1 -218 -15z m334 -713 c50 -151 91 -278 91 -282 0 -5 -99
-8 -220 -8 -121 0 -220 3 -220 6 0 3 45 144 99 312 55 169 102 319 105 335 18
85 18 85 36 -3 10 -47 59 -209 109 -360z"/>
<path d="M7200 5090 l0 -840 170 0 170 0 -2 609 c-2 335 0 607 4 605 3 -2 22
-32 42 -67 20 -34 195 -305 389 -602 l353 -540 187 -3 187 -2 0 840 0 840
-170 0 -171 0 3 -595 c2 -326 0 -591 -3 -587 -4 4 -135 205 -291 447 -157 242
-328 506 -381 588 l-96 147 -196 0 -195 0 0 -840z"/>
<path d="M5483 3875 c-42 -18 -63 -61 -63 -132 0 -75 20 -108 104 -168 37 -26
71 -55 76 -65 15 -28 12 -76 -5 -90 -23 -19 -37 0 -43 59 l-5 51 -65 0 -65 0
7 -62 c10 -105 55 -143 166 -143 73 0 121 22 139 62 16 34 14 147 -3 187 -10
24 -37 50 -90 85 -77 53 -95 78 -81 121 11 35 40 20 43 -23 l3 -37 65 0 64 0
0 48 c0 57 -20 89 -66 108 -42 18 -139 17 -181 -1z"/>
<path d="M6243 3870 c-64 -39 -68 -53 -68 -265 0 -166 2 -194 18 -218 41 -62
127 -85 178 -48 28 21 32 21 43 6 8 -12 23 -16 51 -13 l40 3 3 115 c2 63 1
129 -3 147 l-6 33 -79 0 -80 0 0 -39 c0 -25 5 -41 15 -45 19 -7 21 -109 2
-124 -32 -27 -38 1 -35 189 3 166 5 184 21 187 15 3 17 -5 17 -57 l0 -61 70 0
70 0 0 50 c0 73 -21 115 -69 139 -54 28 -144 28 -188 1z"/>
<path d="M3027 3843 c2 -21 17 -144 31 -273 l27 -235 87 -3 c84 -3 88 -2 92
20 4 17 29 186 37 246 0 4 9 -49 20 -118 10 -69 21 -131 24 -138 3 -9 28 -12
92 -10 l88 3 27 230 c14 127 29 249 32 273 l6 42 -69 0 c-81 0 -74 13 -92
-170 -7 -69 -15 -131 -19 -139 -4 -7 -10 36 -14 95 -4 60 -9 133 -13 162 l-6
52 -72 0 c-85 0 -76 16 -96 -175 -7 -66 -15 -124 -19 -128 -4 -4 -10 43 -14
105 -3 62 -9 132 -12 156 l-6 42 -68 0 -68 0 5 -37z"/>
<path d="M3710 3610 l0 -270 125 0 125 0 0 49 0 50 -52 3 -53 3 0 60 0 60 40
1 40 0 3 52 3 52 -45 0 -46 0 0 50 0 50 50 0 50 0 0 55 0 55 -120 0 -120 0 0
-270z"/>
<path d="M4090 3610 l0 -271 146 3 c146 3 147 3 167 30 16 22 20 42 20 114 0
87 0 88 -34 117 -20 19 -28 32 -21 35 31 10 42 35 42 95 0 121 -37 147 -207
147 l-113 0 0 -270z m185 120 c0 -44 -3 -55 -17 -58 -16 -3 -18 5 -18 58 0 53
2 61 18 58 14 -3 17 -14 17 -58z m0 -225 c0 -58 -3 -70 -17 -73 -16 -3 -18 6
-18 73 0 67 2 76 18 73 14 -3 17 -15 17 -73z"/>
<path d="M4570 3604 l0 -276 133 4 c142 4 172 13 187 54 6 14 10 112 10 217 0
269 -6 277 -222 277 l-108 0 0 -276z m178 174 c13 -13 18 -301 6 -332 -3 -9
-15 -16 -25 -16 -18 0 -19 10 -19 173 0 188 4 209 38 175z"/>
<path d="M5050 3605 l0 -275 120 0 120 0 0 55 0 55 -50 0 -51 0 3 63 3 62 43
3 42 3 0 50 0 49 -45 0 -45 0 0 50 0 50 45 0 45 0 0 55 0 55 -115 0 -115 0 0
-275z"/>
<path d="M5882 3608 l3 -273 66 -3 66 -3 6 83 c9 106 9 227 0 361 l-6 107 -69
0 -68 0 2 -272z"/>
<path d="M6650 3610 l0 -270 60 0 59 0 3 117 3 116 35 -119 35 -119 63 -3 62
-3 0 276 0 275 -60 0 -60 0 -1 -112 -1 -113 -37 110 -38 110 -61 3 -62 3 0
-271z"/>
</g>
</svg>
